<svg xmlns="http://www.w3.org/2000/svg" viewBox="0 0 1440 320"><path fill="#0099ff" fill-opacity="1" d="M0,288L20,245.3C40,203,80,117,120,74.7C160,32,200,32,240,48C280,64,320,96,360,117.3C400,139,440,149,480,128C520,107,560,53,600,37.3C640,21,680,43,720,80C760,117,800,171,840,181.3C880,192,920,160,960,160C1000,160,1040,192,1080,208C1120,224,1160,224,1200,186.7C1240,149,1280,75,1320,80C1360,85,1400,171,1420,213.3L1440,256L1440,320L1420,320C1400,320,1360,320,1320,320C1280,320,1240,320,1200,320C1160,320,1120,320,1080,320C1040,320,1000,320,960,320C920,320,880,320,840,320C800,320,760,320,720,320C680,320,640,320,600,320C560,320,520,320,480,320C440,320,400,320,360,320C320,320,280,320,240,320C200,320,160,320,120,320C80,320,40,320,20,320L0,320Z"></path></svg>